<svg xmlns="http://www.w3.org/2000/svg" viewBox="0 0 709 709">
 <rect style="stroke-linejoin:round;stroke:#000000;stroke-linecap:butt;stroke-width:11.147;fill:none" height="584" width="589" x="60" y="62.41"/>
 <g transform="translate(-16.4 -345.59)">
   <path d="m 110.318,442.486 109.348,0 C 166.354,840.008 266.767,915.231 627.335,851.217 l -1.061,106.163 -511.708,1.061 -4.246,-515.955 z"/>
   <path d="m 243.023,443.055 c -46.803,379.198 48.203,448.980 384.312,384.312 l 0,-102.978 C 301.754,777.719 346.229,622.433 350.817,442.486 l -107.793,0.568 z"/>
   <path d="m 378.108,442.486 c 0.265,-0.265 90.512,0 90.512,0 -4.688,68.894 -22.377,205.163 79.622,179.416 0.281,0.660 -1.592,-87.054 -1.592,-87.054 l -33.972,0 0,-91.300 114.656,0 0,252.074 C 371.077,741.952 359.515,647.340 378.108,442.486 z"/>
  </g>
</svg>
